<svg width="37" height="37" viewBox="0 0 37 37" fill="none" xmlns="http://www.w3.org/2000/svg">
<path fill-rule="evenodd" clip-rule="evenodd" d="M22.6804 0.0895196C23.0063 -0.0223273 23.359 -0.0295464 23.6892 0.0688714C24.0195 0.167289 24.3107 0.366425 24.5222 0.638448L36.096 15.519C36.3218 15.8093 36.4444 16.1665 36.4444 16.5342C36.4444 16.9019 36.3218 17.2592 36.096 17.5494L24.5222 32.43C24.3106 32.7017 24.0195 32.9006 23.6894 32.9989C23.3593 33.0971 23.0067 33.0898 22.681 32.978C22.3552 32.8662 22.0725 32.6555 21.8723 32.3752C21.6721 32.095 21.5644 31.7592 21.5643 31.4148V24.8178C12.6707 25.0029 8.39829 26.6911 6.25218 28.5263C4.21188 30.2707 3.83822 32.3225 3.44967 34.472L3.34881 35.0258C3.27462 35.4222 3.05815 35.7777 2.74013 36.0256C2.42211 36.2735 2.02447 36.3967 1.62201 36.3719C1.21956 36.3471 0.840028 36.1761 0.554832 35.891C0.269636 35.606 0.0984311 35.2266 0.0734276 34.8241C-0.210957 30.2806 0.21562 23.6968 3.42487 18.1893C6.53987 12.8438 12.1482 8.73349 21.5643 8.3036V1.65364C21.5642 1.30915 21.6717 0.973236 21.8718 0.692816C22.0719 0.412397 22.3546 0.201477 22.6804 0.0895196Z" fill="white"/>
</svg>
