<svg width="37" height="37" viewBox="0 0 37 37" fill="none" xmlns="http://www.w3.org/2000/svg">
<path fill-rule="evenodd" clip-rule="evenodd" d="M13.765 0.0895196C13.439 -0.0223273 13.0863 -0.0295464 12.7561 0.0688714C12.4258 0.167289 12.1346 0.366425 11.9231 0.638448L0.349281 15.519C0.123505 15.8093 0.000919342 16.1665 0.000919342 16.5342C0.000919342 16.9019 0.123505 17.2592 0.349281 17.5494L11.9231 32.43C12.1347 32.7017 12.4259 32.9006 12.7559 32.9989C13.086 33.0971 13.4386 33.0898 13.7643 32.978C14.0901 32.8662 14.3728 32.6555 14.573 32.3752C14.7732 32.095 14.8809 31.7592 14.881 31.4148V24.8178C23.7746 25.0029 28.047 26.6911 30.1931 28.5263C32.2334 30.2707 32.6071 32.3225 32.9956 34.472L33.0965 35.0258C33.1707 35.4222 33.3872 35.7777 33.7052 36.0256C34.0232 36.2735 34.4208 36.3967 34.8233 36.3719C35.2258 36.3471 35.6053 36.1761 35.8905 35.891C36.1757 35.606 36.3469 35.2266 36.3719 34.8241C36.6563 30.2806 36.2297 23.6968 33.0204 18.1893C29.9054 12.8438 24.2971 8.73349 14.881 8.3036V1.65364C14.8811 1.30915 14.7736 0.973236 14.5735 0.692816C14.3734 0.412397 14.0907 0.201477 13.765 0.0895196Z" fill="white"/>
</svg>
