<svg width="28" height="28" viewBox="0 0 28 28" fill="none" xmlns="http://www.w3.org/2000/svg">
<path d="M5.29121 1.27205C4.75821 0.739049 4.03531 0.439614 3.28154 0.439614C2.52777 0.439613 1.80486 0.73905 1.27187 1.27205C0.738869 1.80505 0.439434 2.52795 0.439434 3.28172C0.439434 4.03549 0.738869 4.75839 1.27187 5.29139L9.98045 14L1.27187 22.7085C0.738869 23.2415 0.439434 23.9644 0.439434 24.7182C0.439434 25.472 0.738869 26.1949 1.27187 26.7279C1.80486 27.2609 2.52777 27.5603 3.28154 27.5603C4.03531 27.5603 4.75821 27.2609 5.29121 26.7279L13.9998 18.0193L22.7084 26.7279C23.2414 27.2609 23.9643 27.5603 24.718 27.5603C25.4718 27.5603 26.1947 27.2609 26.7277 26.7279C27.2607 26.1949 27.5601 25.472 27.5601 24.7182C27.5601 23.9644 27.2607 23.2415 26.7277 22.7085L18.0191 14L26.7277 5.29139C27.2607 4.75839 27.5601 4.03549 27.5601 3.28172C27.5601 2.52795 27.2607 1.80505 26.7277 1.27205C26.1947 0.73905 25.4718 0.439614 24.718 0.439616C23.9643 0.439615 23.2414 0.739051 22.7084 1.27205L13.9998 9.98063L5.29121 1.27205Z" fill="#FA75A3"/>
</svg>
