<svg width="52" height="47" viewBox="0 0 52 47" fill="none" xmlns="http://www.w3.org/2000/svg">
<path d="M49 39.8V16.8C49 15.58 48.5154 14.41 47.6527 13.5473C46.79 12.6846 45.62 12.2 44.4 12.2H28.8428C27.9884 12.2 27.1508 11.962 26.4241 11.5127C25.6973 11.0634 25.11 10.4205 24.7281 9.6562L22.6719 5.5438C22.2898 4.77913 21.7022 4.13606 20.975 3.68673C20.2478 3.23741 19.4097 2.9996 18.5549 3H7.6C6.38 3 5.20998 3.48464 4.34731 4.34731C3.48464 5.20998 3 6.38 3 7.6V39.8C3 41.02 3.48464 42.19 4.34731 43.0527C5.20998 43.9154 6.38 44.4 7.6 44.4H44.4C45.62 44.4 46.79 43.9154 47.6527 43.0527C48.5154 42.19 49 41.02 49 39.8Z" stroke="white" stroke-width="5" stroke-linecap="round" stroke-linejoin="round"/>
</svg>
