<svg width="40" height="40" viewBox="0 0 40 40" fill="none" xmlns="http://www.w3.org/2000/svg">
<path d="M22.0274 19.1439L20.0126 17.1282C19.5511 16.6666 18.9255 16.4065 18.2728 16.4047C17.62 16.403 16.9931 16.6598 16.5292 17.119L2.5208 30.047C2.01071 30.5277 1.6758 31.1405 1.64494 31.8265C1.63008 32.1667 1.68553 32.5064 1.80781 32.8242C1.9301 33.1421 2.11659 33.4313 2.35566 33.6739L5.36523 36.7166C5.36683 36.7186 5.36864 36.7204 5.37063 36.722C5.8357 37.1856 6.46495 37.4468 7.12158 37.449H7.21264C7.89866 37.4235 8.51293 37.1017 9.00063 36.587L22.0189 22.6427C22.2498 22.4138 22.4332 22.1416 22.5586 21.8417C22.684 21.5418 22.749 21.2201 22.7498 20.895C22.7505 20.57 22.6871 20.2479 22.5632 19.9474C22.4392 19.6469 22.2572 19.3738 22.0274 19.1439Z" fill="white"/>
<path d="M38.2208 15.0702L38.1968 15.0463L35.5523 12.4287C35.3974 12.2743 35.2134 12.1521 35.011 12.0692C34.8087 11.9863 34.5919 11.9443 34.3731 11.9456C34.0188 11.946 33.6735 12.0577 33.3862 12.2651C33.3862 12.2319 33.3908 12.1995 33.3931 12.171C33.4278 11.6694 33.4819 10.9116 32.9918 10.2248C32.4092 9.43951 31.7696 8.69823 31.0781 8.00695C31.0762 8.0047 31.0741 8.00264 31.0719 8.00078C30.044 6.98833 27.8069 5.0815 24.3798 3.68398C23.0801 3.15056 21.6886 2.87661 20.2837 2.87757C17.8483 2.87757 15.9963 3.97644 15.2871 4.62775C14.8855 5.01129 14.5193 5.43021 14.1928 5.87942C14.0369 6.09469 13.9546 6.35456 13.9581 6.62037C13.9617 6.88618 14.0509 7.14375 14.2126 7.35476C14.3743 7.56578 14.5998 7.71897 14.8555 7.79157C15.1113 7.86417 15.3836 7.85229 15.632 7.7577C15.8484 7.67679 16.0696 7.60902 16.2941 7.55474C16.7618 7.45583 17.2415 7.42593 17.7179 7.466C18.7357 7.55011 19.9396 8.05557 20.472 8.47613C21.3749 9.20229 21.8094 10.1808 21.8811 11.647C21.895 11.9418 21.2854 13.0468 20.3378 14.3078C20.1572 14.5457 20.0691 14.841 20.0897 15.139C20.1103 15.437 20.2381 15.7174 20.4497 15.9283L23.105 18.5837C23.3281 18.8073 23.6285 18.9369 23.9443 18.9458C24.2601 18.9547 24.5673 18.8422 24.8027 18.6315C25.5536 17.9609 26.6972 16.95 27.0969 16.7023C27.6904 16.3373 28.1148 16.2671 28.2313 16.2547C28.5337 16.2251 28.8379 16.2892 29.1025 16.4384C29.1039 16.4516 29.1024 16.4649 29.0983 16.4775C29.0942 16.4902 29.0875 16.5018 29.0786 16.5117L28.9382 16.6452L28.915 16.6668C28.7598 16.8214 28.6368 17.0052 28.5529 17.2076C28.4691 17.4099 28.4261 17.6269 28.4264 17.846C28.4268 18.065 28.4705 18.2818 28.555 18.4839C28.6395 18.686 28.7632 18.8694 28.9189 19.0235L31.5627 21.6403C31.7176 21.7946 31.9016 21.9166 32.104 21.9994C32.3064 22.0822 32.5232 22.1241 32.7418 22.1226C33.1809 22.1233 33.6027 21.9515 33.9163 21.6442L38.1992 17.4138C38.2138 17.3991 38.2285 17.3837 38.2424 17.3683C38.5297 17.0533 38.6872 16.6413 38.6832 16.215C38.6792 15.7887 38.514 15.3797 38.2208 15.0702Z" fill="white"/>
</svg>
