<svg width="40" height="37" viewBox="0 0 40 37" fill="none" xmlns="http://www.w3.org/2000/svg">
<path d="M21.7688 0.957275C21.0768 -0.319092 18.9249 -0.319092 18.233 0.957275L0.233859 34.135C0.0718338 34.4324 -0.00849104 34.7656 0.000710344 35.1023C0.00991173 35.439 0.108326 35.7676 0.286363 36.0561C0.4644 36.3446 0.715989 36.5832 1.01661 36.7486C1.31724 36.914 1.65665 37.0006 2.00177 37H38C38.3448 37.0007 38.684 36.9142 38.9845 36.7488C39.2849 36.5835 39.5363 36.3451 39.7141 36.0567C39.892 35.7683 39.9902 35.4399 39.9993 35.1035C40.0084 34.767 39.928 34.434 39.7659 34.137L21.7688 0.957275ZM22.0008 31.1451H18.001V27.2418H22.0008V31.1451ZM18.001 23.3386V13.5804H22.0008L22.0028 23.3386H18.001Z" fill="white"/>
</svg>
