<svg width="32" height="29" viewBox="0 0 32 29" fill="none" xmlns="http://www.w3.org/2000/svg">
<path d="M31.8165 26.5628L24.0945 10.9568C23.957 10.6791 23.7458 10.4456 23.4844 10.2824C23.223 10.1191 22.9218 10.0327 22.6145 10.0327C22.3073 10.0327 22.0061 10.1191 21.7447 10.2824C21.4833 10.4456 21.272 10.6791 21.1346 10.9568L18.3072 16.6706C16.4 16.5016 14.5638 15.8583 12.9625 14.7978C14.9073 12.5111 16.1244 9.68489 16.4548 6.68829H19.305C19.7439 6.68829 20.1648 6.51213 20.4751 6.19855C20.7854 5.88498 20.9597 5.45968 20.9597 5.01622C20.9597 4.57276 20.7854 4.14746 20.4751 3.83388C20.1648 3.52031 19.7439 3.34415 19.305 3.34415H12.1346V1.67207C12.1346 1.22861 11.9603 0.803313 11.6499 0.489739C11.3396 0.176164 10.9187 0 10.4799 0C10.041 0 9.62013 0.176164 9.30981 0.489739C8.99949 0.803313 8.82515 1.22861 8.82515 1.67207V3.34415H1.65472C1.21586 3.34415 0.794975 3.52031 0.484655 3.83388C0.174336 4.14746 0 4.57276 0 5.01622C0 5.45968 0.174336 5.88498 0.484655 6.19855C0.794975 6.51213 1.21586 6.68829 1.65472 6.68829H13.1178C12.8066 8.86684 11.8915 10.9119 10.4782 12.5868C9.78969 11.7721 9.2157 10.8653 8.77248 9.89198C8.68177 9.69245 8.55305 9.51293 8.39367 9.36366C8.2343 9.21439 8.04739 9.09831 7.84362 9.02203C7.63984 8.94576 7.4232 8.91079 7.20605 8.91912C6.98891 8.92745 6.77551 8.97891 6.57805 9.07058C6.38059 9.16224 6.20292 9.29231 6.05521 9.45336C5.90749 9.61441 5.79261 9.80327 5.71713 10.0092C5.64165 10.2151 5.60704 10.434 5.61528 10.6534C5.62352 10.8729 5.67446 11.0885 5.76517 11.288C6.34371 12.5589 7.09565 13.7416 7.99904 14.8016C6.11592 16.0554 3.90986 16.7227 1.65472 16.7207C1.21586 16.7207 0.794975 16.8969 0.484655 17.2105C0.174336 17.524 0 17.9493 0 18.3928C0 18.8363 0.174336 19.2616 0.484655 19.5751C0.794975 19.8887 1.21586 20.0649 1.65472 20.0649C4.83359 20.0683 7.92922 19.0382 10.4841 17.1269C12.3366 18.5032 14.4783 19.4292 16.7426 19.8329L13.4124 26.5628C13.3133 26.7594 13.2536 26.9739 13.2368 27.194C13.2201 27.414 13.2466 27.6352 13.3149 27.8448C13.3831 28.0544 13.4918 28.2483 13.6345 28.4153C13.7773 28.5823 13.9514 28.7191 14.1467 28.8178C14.3421 28.9164 14.5548 28.9751 14.7727 28.9903C14.9905 29.0055 15.2092 28.977 15.4161 28.9064C15.623 28.8358 15.8141 28.7245 15.9782 28.5789C16.1423 28.4333 16.2763 28.2564 16.3725 28.0582L18.1216 24.5237H27.1077L28.8567 28.0582C28.9524 28.2572 29.0861 28.4351 29.2502 28.5815C29.4143 28.7279 29.6056 28.8399 29.8129 28.9111C30.0201 28.9823 30.2393 29.0112 30.4578 28.9961C30.6762 28.9811 30.8895 28.9224 31.0853 28.8235C31.2811 28.7246 31.4555 28.5874 31.5985 28.4198C31.7414 28.2523 31.8501 28.0577 31.9181 27.8475C31.9861 27.6372 32.0122 27.4154 31.9948 27.1949C31.9773 26.9744 31.9168 26.7595 31.8166 26.5628H31.8165ZM19.7763 21.1796L22.6146 15.4434L25.4528 21.1796H19.7763Z" fill="white"/>
</svg>
