<svg width="36" height="35" viewBox="0 0 36 35" fill="none" xmlns="http://www.w3.org/2000/svg">
<path d="M30.0216 14.0278L12.175 31.3822C11.2177 32.3123 10.0185 32.9721 8.70556 33.2911L1.85921 34.956C1.60856 35.0174 1.34581 35.0145 1.09665 34.9476C0.847477 34.8808 0.620412 34.7522 0.437636 34.5745C0.25486 34.3968 0.122626 34.176 0.0538541 33.9338C-0.0149173 33.6915 -0.0178734 33.4361 0.0452744 33.1924L1.75761 26.5388C2.08608 25.2609 2.76577 24.0939 3.72395 23.1627L21.5675 5.80826L30.0216 14.0278ZM34.2501 1.70282C35.3706 2.79253 36 4.27031 36 5.81116C36 7.35202 35.3706 8.82979 34.2501 9.9195L32.1343 11.9708L23.6802 3.75409L25.796 1.70282C26.351 1.16297 27.01 0.734732 27.7353 0.442558C28.4606 0.150383 29.238 0 30.0231 0C30.8081 0 31.5855 0.150383 32.3108 0.442558C33.0361 0.734732 33.6951 1.16297 34.2501 1.70282Z" fill="white"/>
</svg>
