<svg width="36" height="36" viewBox="0 0 36 36" fill="none" xmlns="http://www.w3.org/2000/svg">
<path d="M20.8421 2.84211C20.8421 2.08833 20.5427 1.36543 20.0097 0.832433C19.4767 0.299435 18.7538 0 18 0C17.2462 0 16.5233 0.299435 15.9903 0.832433C15.4573 1.36543 15.1579 2.08833 15.1579 2.84211V15.1579H2.84211C2.08833 15.1579 1.36543 15.4573 0.832433 15.9903C0.299435 16.5233 0 17.2462 0 18C0 18.7538 0.299435 19.4767 0.832433 20.0097C1.36543 20.5427 2.08833 20.8421 2.84211 20.8421H15.1579V33.1579C15.1579 33.9117 15.4573 34.6346 15.9903 35.1676C16.5233 35.7006 17.2462 36 18 36C18.7538 36 19.4767 35.7006 20.0097 35.1676C20.5427 34.6346 20.8421 33.9117 20.8421 33.1579V20.8421H33.1579C33.9117 20.8421 34.6346 20.5427 35.1676 20.0097C35.7006 19.4767 36 18.7538 36 18C36 17.2462 35.7006 16.5233 35.1676 15.9903C34.6346 15.4573 33.9117 15.1579 33.1579 15.1579H20.8421V2.84211Z" fill="#F5F5F5"/>
</svg>
