<svg width="630" height="351" viewBox="0 0 630 351" fill="none" xmlns="http://www.w3.org/2000/svg">
<path d="M521.216 232.925C521.216 352.867 436.146 350.633 316.204 350.633C196.263 350.633 86.8691 352.867 86.8691 232.925C86.8691 112.984 184.101 15.7517 304.043 15.7517C423.984 15.7517 521.216 112.984 521.216 232.925Z" fill="#F0F0F0"/>
<path d="M89.4978 348.026V310.286H179.389C189.819 310.286 198.259 318.726 198.259 329.156C198.259 339.586 189.819 348.026 179.389 348.026H89.4978Z" fill="#C17937"/>
<path d="M164.361 348.095V315.021C164.361 305.62 171.977 298.003 181.378 298.003C190.779 298.003 198.396 305.62 198.396 315.021V330.46C198.396 340.204 190.504 348.095 180.76 348.095H164.361Z" fill="#C17937"/>
<path d="M252.879 236.383H290.619V329.019C290.619 339.449 282.179 347.889 271.749 347.889C261.319 347.889 252.879 339.449 252.879 329.019V236.383Z" fill="#C17937"/>
<path d="M34.6029 214.288L11.4097 203.995C1.73445 199.672 -2.65717 188.35 1.66582 178.606C5.98881 168.931 17.3109 164.539 27.0548 168.862L50.248 179.155L34.6029 214.288Z" fill="#D48A47"/>
<path d="M203.679 299.033L252.879 278.721C306.539 256.626 332.134 195.144 310.038 141.484L293.295 100.93C285.816 82.7457 264.956 74.0997 246.772 81.5792L90.9383 145.807C61.3636 158.021 47.228 191.85 59.4422 221.425L68.1568 242.559C89.9776 295.67 150.637 320.922 203.679 299.033Z" fill="#C17937"/>
<path d="M286.091 245.99L381.677 177.028L289.041 48.5733C287.394 46.2402 284.169 45.7599 281.836 47.4067L190.436 113.418L286.091 245.99Z" fill="#C17937"/>
<path d="M169.369 327.989C219.461 307.335 243.34 249.97 222.686 199.878L221.108 196.104C200.454 146.012 143.088 122.133 92.9964 142.787C42.9046 163.441 19.0252 220.807 39.6795 270.898L41.2577 274.672C61.912 324.764 119.277 348.644 169.369 327.989Z" fill="#C17937"/>
<path d="M67.3337 348.026V310.286H157.225C167.655 310.286 176.095 318.726 176.095 329.156C176.095 339.586 167.655 348.026 157.225 348.026H67.3337Z" fill="#D48A47"/>
<path d="M64.0403 348.918H70.3533C111.182 348.918 144.256 315.844 144.256 275.016C144.256 242.696 118.043 216.484 85.7239 216.484H78.862C46.5425 216.484 20.3301 242.696 20.3301 275.016V305.139C20.2615 329.293 39.8865 348.918 64.0403 348.918Z" fill="#D48A47"/>
<path d="M225.432 236.383C235.862 236.383 244.302 244.824 244.302 255.254V330.323C244.302 340.753 235.862 349.193 225.432 349.193C215.001 349.193 206.561 340.753 206.561 330.323V255.254C206.561 244.824 215.07 236.383 225.432 236.383Z" fill="#D48A47"/>
<path d="M252.879 313.922H285.953C295.354 313.922 302.971 321.539 302.971 330.94C302.971 340.341 295.354 347.957 285.953 347.957H270.514C260.77 347.957 252.879 340.066 252.879 330.322V313.922Z" fill="#C17937"/>
<path d="M206.493 315.295H239.567C248.968 315.295 256.585 322.912 256.585 332.313C256.585 341.713 248.968 349.33 239.567 349.33H224.128C214.384 349.33 206.493 341.439 206.493 331.695V315.295Z" fill="#D48A47"/>
<path d="M142.128 348.095V315.021C142.128 305.62 149.745 298.003 159.146 298.003C168.546 298.003 176.163 305.62 176.163 315.021V330.46C176.163 340.204 168.272 348.095 158.528 348.095H142.128Z" fill="#D48A47"/>
<path d="M355.602 68.816L360.131 108.34L390.117 104.91C401.027 103.674 408.85 93.7933 407.615 82.8829C406.38 71.9725 396.499 64.1499 385.588 65.3851L355.602 68.816Z" fill="#C17937"/>
<path d="M236.478 169.823L344.553 255.803C362.874 270.419 389.567 267.331 404.183 249.009L443.433 199.672C459.764 179.087 456.402 149.169 435.816 132.838L331.653 50.0831C313.331 35.4673 286.639 38.5552 272.023 56.8764L229.616 110.262C215.069 128.583 218.088 155.276 236.478 169.823Z" fill="#D48A47"/>
<path d="M317.108 75.1285C318.961 72.7954 320.813 70.4624 322.666 68.198" stroke="#4F330E" stroke-width="6" stroke-miterlimit="10" stroke-linecap="round"/>
<path d="M295.012 76.9815C292.679 75.1288 290.346 73.2761 288.081 71.4233" stroke="#4F330E" stroke-width="6" stroke-miterlimit="10" stroke-linecap="round"/>
<path d="M304.756 71.7665C304.344 68.4728 304.001 65.1105 303.589 61.8168" stroke="#4F330E" stroke-width="6" stroke-miterlimit="10" stroke-linecap="round"/>
<path d="M307.226 103.194C298.32 103.194 291.101 95.9745 291.101 87.0686C291.101 78.1628 298.32 70.9432 307.226 70.9432C316.132 70.9432 323.352 78.1628 323.352 87.0686C323.352 95.9745 316.132 103.194 307.226 103.194Z" fill="#2D1F0D"/>
<path d="M363.219 232.953C355.808 227.051 348.397 221.15 340.986 215.249" stroke="#4F330E" stroke-width="12" stroke-miterlimit="10" stroke-linecap="round"/>
<path d="M374.404 137.092L345.927 114.447" stroke="#21577F" stroke-width="10" stroke-miterlimit="10" stroke-linecap="round" stroke-linejoin="round"/>
<path d="M301.162 68.78L349.499 107.218L330.28 131.387L281.943 92.9487L301.162 68.78Z" stroke="#2470A7" stroke-width="10" stroke-miterlimit="10" stroke-linecap="round" stroke-linejoin="round"/>
<path d="M354.091 184.507L405.281 225.198C413.995 232.129 426.69 230.688 433.62 221.973L455.098 194.937C462.029 186.223 460.588 173.528 451.873 166.598L400.683 125.906C391.969 118.976 379.274 120.417 372.344 129.132L350.866 156.167C343.935 164.882 345.376 177.577 354.091 184.507Z" fill="#4F330E"/>
<path d="M385.038 151.913L390.185 155.962C393.753 158.775 398.968 158.226 401.85 154.658L405.487 150.06C408.3 146.492 407.751 141.277 404.183 138.395L399.037 134.347C395.468 131.533 390.253 132.082 387.371 135.65L383.735 140.248C380.853 143.885 381.47 149.031 385.038 151.913Z" fill="#2D1F0D"/>
<path d="M427.857 186.154L433.003 190.202C436.571 193.016 441.786 192.467 444.668 188.899L448.305 184.301C451.119 180.733 450.57 175.518 447.001 172.636L441.855 168.587C438.287 165.774 433.072 166.323 430.19 169.891L426.553 174.489C423.671 178.057 424.22 183.272 427.857 186.154Z" fill="#2D1F0D"/>
<path d="M280.464 52.1414L319.988 47.6126L316.557 17.6261C315.322 6.7157 305.441 -1.10686 294.531 0.12828C283.62 1.36342 275.798 11.2445 277.033 22.155L280.464 52.1414Z" fill="#D48A47"/>
<path d="M541.284 334.714V235.217C541.284 231.443 538.196 228.355 534.422 228.355C530.648 228.355 527.56 231.443 527.56 235.217V334.714C527.56 338.488 530.648 341.576 534.422 341.576C538.196 341.576 541.284 338.557 541.284 334.714Z" fill="#666666"/>
<path d="M445.904 347.752H622.941C626.715 347.752 629.803 344.664 629.803 340.89C629.803 337.116 626.715 334.028 622.941 334.028H445.904C442.13 334.028 439.042 337.116 439.042 340.89C439.042 344.733 442.13 347.752 445.904 347.752Z" fill="#666666"/>
<path d="M467.862 333.342V233.844C467.862 230.07 464.774 226.982 461 226.982C457.226 226.982 454.139 230.07 454.139 233.844V333.342C454.139 337.116 457.226 340.203 461 340.203C464.774 340.203 467.862 337.184 467.862 333.342Z" fill="#666666"/>
<path d="M613.335 333.342V233.844C613.335 230.07 610.247 226.982 606.473 226.982C602.699 226.982 599.611 230.07 599.611 233.844V333.342C599.611 337.116 602.699 340.203 606.473 340.203C610.247 340.203 613.335 337.184 613.335 333.342Z" fill="#666666"/>
<path d="M489.821 334.028H579.026C584.172 334.028 588.289 329.911 588.289 324.765C588.289 319.618 584.172 315.501 579.026 315.501H489.821C484.674 315.501 480.557 319.618 480.557 324.765C480.557 329.911 484.674 334.028 489.821 334.028Z" fill="#2470A7"/>
<path d="M499.084 315.501H571.477C576.623 315.501 580.74 311.384 580.74 306.237C580.74 301.091 576.623 296.974 571.477 296.974H499.084C493.937 296.974 489.82 301.091 489.82 306.237C489.82 311.384 493.937 315.501 499.084 315.501Z" fill="#24A7A1"/>
<path d="M506.631 296.974H563.928C569.074 296.974 573.191 292.856 573.191 287.71C573.191 282.564 569.074 278.446 563.928 278.446H506.631C501.485 278.446 497.368 282.564 497.368 287.71C497.368 292.856 501.485 296.974 506.631 296.974Z" fill="#2470A7"/>
</svg>
