<svg width="25" height="35" viewBox="0 0 25 35" fill="none" xmlns="http://www.w3.org/2000/svg">
<path d="M1.78571 31.1111C1.78571 33.25 3.39286 35 5.35714 35H19.6429C21.6071 35 23.2143 33.25 23.2143 31.1111V11.6667C23.2143 9.52778 21.6071 7.77778 19.6429 7.77778H5.35714C3.39286 7.77778 1.78571 9.52778 1.78571 11.6667V31.1111ZM23.2143 1.94444H18.75L17.4821 0.563889C17.1607 0.213889 16.6964 0 16.2321 0H8.76786C8.30357 0 7.83929 0.213889 7.51786 0.563889L6.25 1.94444H1.78571C0.803571 1.94444 0 2.81944 0 3.88889C0 4.95833 0.803571 5.83333 1.78571 5.83333H23.2143C24.1964 5.83333 25 4.95833 25 3.88889C25 2.81944 24.1964 1.94444 23.2143 1.94444Z" fill="white"/>
</svg>
